<svg width="200" height="200" viewBox="0 0 200 200" xmlns="http://www.w3.org/2000/svg" xmlns:xlink="http://www.w3.org/1999/xlink"><title>4</title><defs><path id="a" d="M91.94.643H.34v91.6h91.6V.643z"/><path id="c" d="M11.12 15.551V.931H.039v14.62H11.12z"/><path id="e" d="M.687 4h3.07V.564H.688V4z"/><path id="g" d="M.828 4h2.1V.568h-2.1z"/><path id="i" d="M0 127.357h140.12V1H0z"/></defs><g transform="translate(30 36)" fill="none" fill-rule="evenodd"><path d="M20.467 74.591l23.58 21.668c7.199-13.104 29.146-52.117 29.217-52.283L20.467 74.591z" fill="#009344"/><path d="M71.827 15.73c-17.132 0-31.069 13.939-31.069 31.07 0 2.964.425 5.829 1.205 8.546l8.79-4.884a21.346 21.346 0 0 1-.337-3.662c0-11.806 9.605-21.412 21.412-21.412 11.806 0 21.41 9.605 21.41 21.412 0 11.806-9.604 21.412-21.41 21.412a21.32 21.32 0 0 1-5.81-.823c-1.596 2.853-3.226 5.766-4.813 8.608a30.913 30.913 0 0 0 10.622 1.871c17.131 0 31.068-13.937 31.068-31.068S88.958 15.73 71.827 15.73" fill="#009344"/><g transform="translate(25 .357)"><mask id="b" fill="#fff"><use xlink:href="#a"/></mask><path d="M46.14.643C20.886.643.34 21.188.34 46.443a45.569 45.569 0 0 0 2.947 16.145l8.489-4.716a36.062 36.062 0 0 1-1.858-11.43c0-19.971 16.248-36.22 36.22-36.22 19.974 0 36.223 16.249 36.223 36.22 0 19.973-16.25 36.222-36.222 36.222-4.426 0-8.668-.801-12.592-2.261-1.728 3.103-3.332 5.99-4.688 8.444a45.548 45.548 0 0 0 17.282 3.396c25.253 0 45.799-20.546 45.799-45.8 0-25.255-20.546-45.8-45.8-45.8" fill="#8CC63E" mask="url(#b)"/></g><path d="M6.41 111.348h6.311v7.88c-1.714.587-3.597.88-5.65.88-2.255 0-3.996-.653-5.225-1.96-1.23-1.306-1.846-3.17-1.846-5.59 0-2.36.674-4.197 2.02-5.51 1.347-1.313 3.234-1.97 5.661-1.97.92 0 1.788.086 2.604.26.817.173 1.53.393 2.136.66l-1.25 3.1c-1.054-.52-2.21-.78-3.47-.78-1.154 0-2.046.375-2.676 1.125-.63.75-.945 1.822-.945 3.215 0 1.367.285 2.409.855 3.125.571.717 1.392 1.075 2.465 1.075.587 0 1.127-.056 1.62-.17v-2.29H6.41v-3.05zM19.037 111.618h.74c1.38 0 2.07-.61 2.07-1.83 0-1.007-.677-1.51-2.03-1.51h-.78v3.34zm0 2.97v5.32h-3.95v-14.62h4.79c3.973 0 5.96 1.44 5.96 4.32 0 1.694-.827 3.004-2.48 3.93l4.26 6.37h-4.48l-3.1-5.32h-1zM37.013 119.908h-8.68v-14.62h8.68v3.17h-4.73v2.3h4.38v3.17h-4.38v2.76h4.73zM47.639 119.908h-8.68v-14.62h8.68v3.17h-4.73v2.3h4.38v3.17h-4.38v2.76h4.73zM63.506 119.908h-5.181l-5.34-10.3h-.09c.127 1.62.19 2.856.19 3.71v6.59h-3.5v-14.62h5.16l5.32 10.16h.06c-.093-1.474-.14-2.657-.14-3.55v-6.61h3.52v14.62z" fill="#009344"/><path fill="#232723" d="M72.502 119.908h-3.95v-11.39h-3.571v-3.23h11.081v3.23h-3.56zM84.947 113.928l-.63-2.4a93.416 93.416 0 0 1-.535-2.07 33.098 33.098 0 0 1-.415-1.82c-.06.34-.179.9-.356 1.68-.176.78-.568 2.317-1.174 4.61h3.11zm1.54 5.98l-.72-2.74h-4.75l-.74 2.74h-4.34l4.77-14.68h5.27l4.83 14.68h-4.32zM95.702 111.618h.741c1.38 0 2.07-.61 2.07-1.83 0-1.007-.677-1.51-2.03-1.51h-.78v3.34zm0 2.97v5.32h-3.949v-14.62h4.79c3.973 0 5.96 1.44 5.96 4.32 0 1.694-.826 3.004-2.48 3.93l4.26 6.37h-4.48l-3.1-5.32h-1zM110.849 111.348h6.31v7.88c-1.713.587-3.596.88-5.65.88-2.254 0-3.995-.653-5.225-1.96-1.23-1.306-1.845-3.17-1.845-5.59 0-2.36.673-4.197 2.02-5.51 1.346-1.313 3.233-1.97 5.66-1.97.92 0 1.789.086 2.605.26.816.173 1.528.393 2.135.66l-1.25 3.1c-1.054-.52-2.21-.78-3.47-.78-1.153 0-2.045.375-2.675 1.125-.63.75-.945 1.822-.945 3.215 0 1.367.285 2.409.854 3.125.57.717 1.392 1.075 2.466 1.075.587 0 1.126-.056 1.62-.17v-2.29h-2.61v-3.05zM128.185 119.908h-8.681v-14.62h8.68v3.17h-4.73v2.3h4.38v3.17h-4.38v2.76h4.73z"/><g transform="translate(129 104.357)"><mask id="d" fill="#fff"><use xlink:href="#c"/></mask><path fill="#232723" mask="url(#d)" d="M7.56 15.551H3.61V4.161H.039V.93H11.12v3.23H7.56z"/></g><path fill="#009344" d="M23.16 125.643l.89-1.67h.421l-1.115 2.045v1.294h-.392v-1.276l-1.113-2.062h.425z"/><g transform="translate(26 123.357)"><mask id="f" fill="#fff"><use xlink:href="#e"/></mask><path d="M1.098 2.281c0 .452.097.794.289 1.028.192.234.473.351.839.351.37 0 .649-.117.838-.35.188-.233.283-.575.283-1.029 0-.449-.094-.79-.282-1.022-.188-.232-.466-.348-.834-.348-.37 0-.652.117-.844.35-.192.234-.29.574-.29 1.02m2.66 0c0 .534-.135.954-.404 1.26-.271.306-.646.46-1.127.46-.491 0-.871-.15-1.138-.452-.267-.3-.401-.725-.401-1.273 0-.543.134-.964.402-1.264.268-.298.649-.448 1.142-.448.479 0 .853.152 1.123.456.269.305.404.725.404 1.261" fill="#009344" mask="url(#f)"/></g><path d="M34.958 123.974v2.16c0 .38-.115.679-.345.897-.23.217-.546.326-.947.326-.402 0-.713-.11-.933-.328-.219-.22-.33-.521-.33-.905v-2.15h.388v2.178c0 .279.076.492.229.64.152.15.376.225.671.225.282 0 .498-.075.651-.225.152-.15.228-.364.228-.645v-2.173h.388zM38.161 125.59h.531c.275 0 .476-.055.603-.164.13-.108.192-.272.192-.489 0-.22-.065-.38-.195-.477-.13-.098-.339-.146-.627-.146h-.504v1.276zm0 .333v1.388h-.389v-3.338h.916c.41 0 .712.078.908.236.195.156.293.392.293.707 0 .442-.224.74-.67.895l.905 1.5h-.459l-.808-1.388h-.696zM46.133 125.731v1.25h.696c.269 0 .472-.052.609-.157.135-.105.204-.267.204-.49 0-.207-.07-.359-.21-.457-.14-.096-.35-.145-.635-.145h-.664zm0-.328h.639c.274 0 .47-.044.59-.13.122-.084.18-.23.18-.434 0-.188-.065-.323-.2-.406-.133-.083-.347-.124-.64-.124h-.57v1.094zm-.39-1.43h.945c.442 0 .763.067.96.2.199.132.297.34.297.626a.715.715 0 0 1-.166.49c-.11.13-.27.213-.482.251v.022c.507.088.76.353.76.8 0 .299-.101.532-.302.699-.202.166-.483.25-.847.25h-1.164v-3.338zM53.23 123.974v2.16c0 .38-.114.679-.344.897-.23.217-.547.326-.949.326-.4 0-.712-.11-.931-.328-.22-.22-.33-.521-.33-.905v-2.15h.387v2.178c0 .279.076.492.23.64.151.15.376.225.67.225.282 0 .498-.075.651-.225.152-.15.228-.364.228-.645v-2.173h.389z" fill="#009344"/><g transform="translate(55 123.357)"><mask id="h" fill="#fff"><use xlink:href="#g"/></mask><path d="M2.929 3.066c0 .294-.106.523-.32.687-.213.165-.502.247-.867.247-.396 0-.701-.05-.914-.153v-.375c.137.058.287.104.448.137.16.034.32.051.479.051.259 0 .454-.05.585-.148a.481.481 0 0 0 .195-.409.523.523 0 0 0-.07-.285.65.65 0 0 0-.231-.204 3.374 3.374 0 0 0-.496-.213c-.312-.11-.534-.242-.666-.394-.134-.153-.201-.35-.201-.596a.74.74 0 0 1 .29-.614c.194-.153.45-.229.768-.229.33 0 .637.061.915.183l-.121.338a2.061 2.061 0 0 0-.804-.174c-.205 0-.365.045-.481.133a.437.437 0 0 0-.174.367c0 .116.02.211.064.285a.6.6 0 0 0 .216.203c.1.061.256.13.465.204.35.125.59.26.723.402a.792.792 0 0 1 .197.557" fill="#009344" mask="url(#h)"/></g><mask id="j" fill="#fff"><use xlink:href="#i"/></mask><path fill="#009344" mask="url(#j)" d="M60.547 127.312h.389v-3.338h-.389zM66.394 127.312h-.443l-1.824-2.801h-.018c.024.328.036.63.036.904v1.897h-.358v-3.338h.438l1.819 2.79h.019l-.021-.396a7.276 7.276 0 0 1-.011-.478v-1.916h.363v3.338zM71.107 127.312h-1.86v-3.338h1.86v.345h-1.472v1.075h1.383v.342h-1.383v1.229h1.472zM75.662 126.423c0 .294-.106.523-.319.687-.214.165-.503.247-.868.247-.396 0-.7-.05-.914-.153v-.375c.138.058.287.104.45.137.16.034.32.051.477.051.26 0 .454-.05.585-.148a.482.482 0 0 0 .196-.409.532.532 0 0 0-.069-.285.654.654 0 0 0-.233-.204 3.326 3.326 0 0 0-.496-.213c-.31-.11-.533-.242-.666-.394-.133-.153-.2-.35-.2-.596a.74.74 0 0 1 .29-.614c.194-.153.45-.229.767-.229.332 0 .637.061.916.183l-.12.338a2.065 2.065 0 0 0-.805-.174c-.206 0-.366.045-.48.133a.434.434 0 0 0-.175.367c0 .116.021.211.063.285a.618.618 0 0 0 .216.203c.102.061.256.13.465.204.35.125.591.26.723.402a.787.787 0 0 1 .197.557M80.164 126.423c0 .294-.106.523-.319.687-.213.165-.503.247-.868.247-.396 0-.7-.05-.914-.153v-.375c.138.058.287.104.45.137.16.034.32.051.477.051.26 0 .454-.05.585-.148a.482.482 0 0 0 .196-.409.532.532 0 0 0-.069-.285.654.654 0 0 0-.233-.204 3.326 3.326 0 0 0-.496-.213c-.31-.11-.534-.242-.666-.394-.133-.153-.2-.35-.2-.596a.74.74 0 0 1 .29-.614c.193-.153.45-.229.767-.229.332 0 .637.061.915.183l-.12.338a2.061 2.061 0 0 0-.805-.174c-.205 0-.365.045-.48.133a.436.436 0 0 0-.174.367c0 .116.021.211.063.285a.61.61 0 0 0 .216.203c.102.061.256.13.465.204.35.125.591.26.723.402a.787.787 0 0 1 .197.557M86.96 127.312h-.388v-2.993h-1.056v-.345h2.502v.345H86.96zM92.013 125.9l-.39-1.034a6.38 6.38 0 0 1-.154-.481 4.3 4.3 0 0 1-.143.481l-.393 1.034h1.08zm.536 1.411l-.415-1.06h-1.34l-.41 1.06h-.392l1.32-3.35h.326l1.313 3.35h-.402zM96.813 125.563h1.135v1.624a3.688 3.688 0 0 1-.538.127 4.107 4.107 0 0 1-.635.043c-.506 0-.9-.15-1.181-.45-.281-.301-.422-.722-.422-1.264 0-.347.07-.651.209-.912.138-.261.34-.46.602-.598.261-.138.567-.207.92-.207.355 0 .686.066.994.197l-.15.342a2.228 2.228 0 0 0-.87-.192c-.406 0-.724.12-.953.363-.227.242-.342.578-.342 1.007 0 .45.11.792.33 1.025.22.233.543.35.97.35.231 0 .456-.027.677-.08v-1.028h-.746v-.347zM100.68 127.312v-3.338h.389v2.986h1.472v.352zM105.039 127.312h.388v-3.338h-.388zM110.885 127.312h-.442l-1.825-2.801h-.018c.024.328.036.63.036.904v1.897h-.357v-3.338h.437l1.819 2.79h.019l-.021-.396a7.087 7.087 0 0 1-.01-.478v-1.916h.362v3.338zM115.6 127.312h-1.861v-3.338h1.86v.345h-1.472v1.075h1.383v.342h-1.383v1.229h1.473z"/></g></svg>
